GIL12_slow4_RRA_states
nRows=4
nColumns=47

# SIMM Motion File Header:
name GIL12_slow4_RRA_states
datacolumns 47
datarows 4
otherdata 1
range 0.57383000000000017000 0.57533000000000023000
endheader
time	pelvis_tx	pelvis_ty	pelvis_tz	pelvis_tilt	pelvis_list	pelvis_rotation	hip_flexion_r	hip_adduction_r	hip_rotation_r	knee_angle_r	ankle_angle_r	subtalar_angle_r	mtp_angle_r	hip_flexion_l	hip_adduction_l	hip_rotation_l	knee_angle_l	ankle_angle_l	subtalar_angle_l	mtp_angle_l	lumbar_extension	lumbar_bending	lumbar_rotation	pelvis_tx_u	pelvis_ty_u	pelvis_tz_u	pelvis_tilt_u	pelvis_list_u	pelvis_rotation_u	hip_flexion_r_u	hip_adduction_r_u	hip_rotation_r_u	knee_angle_r_u	ankle_angle_r_u	subtalar_angle_r_u	mtp_angle_r_u	hip_flexion_l_u	hip_adduction_l_u	hip_rotation_l_u	knee_angle_l_u	ankle_angle_l_u	subtalar_angle_l_u	mtp_angle_l_u	lumbar_extension_u	lumbar_bending_u	lumbar_rotation_u
      0.57383000000000017000	     -1.35764609900365720000	      0.68882925549534924000	      0.27151008046397185000	     10.66376353769104000000	      1.33192002523627840000	      0.49056453465888028000	     -8.11865476400842570000	      2.97699223311794500000	    -11.58760995725201900000	    -13.41840882385792200000	     12.05692466842150500000	     -0.00000000000005600632	      0.00000000000013416449	     14.05456756342374900000	     -1.15801234296338260000	     -2.42763761140539990000	    -26.21618821066981300000	     -0.73222220462985599000	     -0.00000000000000299637	      0.00000000000000100905	    -30.71992382974800900000	      2.41144271281191000000	      5.11865520735588660000	      0.47860412769649291000	     -0.05756829191545452500	      0.02661137470668157800	      2.69199158446569560000	     -2.36652544689986710000	    -13.61625129435826600000	    -55.45801391298663700000	     -0.49421730809784115000	     -2.07342200921444770000	     16.52649124153251800000	     31.39903842868547200000	     -0.00000000000080337080	      0.00000000000072034496	     15.12827562533231300000	     15.87461472452213800000	    -27.26183256946266600000	    248.80883280363997000000	    -18.25487605816131900000	      0.00000000000000385232	      0.00000000000001636340	     -5.07054024646566060000	     -8.44591364764206890000	      8.81835105672618800000
      0.57433000000000023000	     -1.35740671556324680000	      0.68880038061595084000	      0.27152337312769914000	     10.66508001711102500000	      1.33072879617252850000	      0.48377158291520356000	     -8.14633780570007100000	      2.97674844057730280000	    -11.58867959129811500000	    -13.41019430729637400000	     12.07262831361828700000	     -0.00000000000005640785	      0.00000000000013452148	     14.06214334515543600000	     -1.15008743366899860000	     -2.44141901216876180000	    -26.09180689603539300000	     -0.74134749840388470000	     -0.00000000000000299440	      0.00000000000000101698	    -30.72242640999501600000	      2.40722187840314340000	      5.12305671674681930000	      0.47892992376377241000	     -0.05793111340803367600	      0.02655943483344969100	      2.57388241786392370000	     -2.39841631359314580000	    -13.55545377505190200000	    -55.27415041518368400000	     -0.48090999888025959000	     -2.20536496044164390000	     16.33158426545037800000	     31.41554745632393500000	     -0.00000000000081151797	      0.00000000000070072045	     15.17495299941213100000	     15.82515864880817500000	    -27.86303362656079200000	    248.71581751550642000000	    -18.24607163325600100000	      0.00000000000000436108	      0.00000000000001444996	     -4.93974769156219740000	     -8.43748101087581580000	      8.78780699030974510000
      0.57483000000000017000	     -1.35716716878583640000	      0.68877132450342837000	      0.27153664004683231000	     10.66633738545309600000	      1.32952158086690100000	      0.47700918638856282000	     -8.17392892744058310000	      2.97651136988149510000	    -11.58981556792531900000	    -13.40207721408051700000	     12.08834014935321700000	     -0.00000000000005681339	      0.00000000000013487217	     14.06974260514931700000	     -1.14218704852558940000	     -2.45549989751939000000	    -25.96747299878044400000	     -0.75046805257415217000	     -0.00000000000000299254	      0.00000000000000102399	    -30.72486355328882400000	      2.40300518035465420000	      5.12744313079172190000	      0.47925748377017224000	     -0.05829320552266726400	      0.02650838317800953400	      2.45556546507456240000	     -2.43047547962966790000	    -13.49402329096813500000	    -55.09036524120245600000	     -0.46732213666772821000	     -2.33878206206466690000	     16.13683050823522400000	     31.43165736480152400000	     -0.00000000000080478841	      0.00000000000067766349	     15.22216266731808400000	     15.77651735546197600000	    -28.45974888537416800000	    248.61916859481897000000	    -18.23592509355330200000	      0.00000000000000221929	      0.00000000000001238852	     -4.80881039806942830000	     -8.42935705602075200000	      8.75796162621553440000
      0.57533000000000023000	     -1.35692745778276440000	      0.68874208753456712000	      0.27154988165503552000	     10.66753555277990600000	      1.32829829287975310000	      0.47027766579167424000	     -8.20142819181982570000	      2.97628116555028970000	    -11.59101861098327300000	    -13.39405744634529000000	     12.10405990746124000000	     -0.00000000000005721145	      0.00000000000013520826	     14.07736558876513100000	     -1.13431077850960600000	     -2.46987799755570150000	    -25.84318833257955100000	     -0.75958319745654745000	     -0.00000000000000299133	      0.00000000000000102993	    -30.72723520069457600000	      2.39879247113705540000	      5.13181479186708330000	      0.47958682364131794000	     -0.05865455234194347200	      0.02645819653870091700	      2.33706988707833530000	     -2.46270149691172340000	    -13.43195587793287500000	    -54.90670555852396000000	     -0.45345163270172084000	     -2.47362476136113680000	     15.94225955287483000000	     31.44738606570356500000	     -0.00000000000079510542	      0.00000000000068385731	     15.26985792701602100000	     15.72870291757107500000	    -29.05188240941094000000	    248.51888895960295000000	    -18.22442230933491900000	      0.00000000000000251024	      0.00000000000001270027	     -4.67775508230390800000	     -8.42153435902672600000	      8.72879726907827980000
